<svg><defs>
<g id="3d-rotation"><path d="M7.52 21.48C4.25 19.94 1.91 16.76 1.55 13H.05C.56 19.16 5.71 24 12 24l.66-.03-3.81-3.81-1.33 1.32zm.89-6.52c-.19 0-.37-.03-.52-.08-.16-.06-.29-.13-.4-.24-.11-.1-.2-.22-.26-.37-.06-.14-.09-.3-.09-.47h-1.3c0 .36.07.68.21.95.14.27.33.5.56.69.24.18.51.32.82.41.3.1.62.15.96.15.37 0 .72-.05 1.03-.15.32-.1.6-.25.83-.44s.42-.43.55-.72c.13-.29.2-.61.2-.97 0-.19-.02-.38-.07-.56-.05-.18-.12-.35-.23-.51-.1-.16-.24-.3-.4-.43-.17-.13-.37-.23-.61-.31.2-.09.37-.2.52-.33.15-.13.27-.27.37-.42.1-.15.17-.3.22-.46.05-.16.07-.32.07-.48 0-.36-.06-.68-.18-.96-.12-.28-.29-.51-.51-.69-.2-.19-.47-.33-.77-.43C9.1 8.05 8.76 8 8.39 8c-.36 0-.69.05-1 .16-.3.11-.57.26-.79.45-.21.19-.38.41-.51.67-.12.26-.18.54-.18.85h1.3c0-.17.03-.32.09-.45s.14-.25.25-.34c.11-.09.23-.17.38-.22.15-.05.3-.08.48-.08.4 0 .7.1.89.31.19.2.29.49.29.86 0 .18-.03.34-.08.49-.05.15-.14.27-.25.37-.11.1-.25.18-.41.24-.16.06-.36.09-.58.09H7.5v1.03h.77c.22 0 .42.02.6.07s.33.13.45.23c.12.11.22.24.29.4.07.16.1.35.1.57 0 .41-.12.72-.35.93-.23.23-.55.33-.95.33zm8.55-5.92c-.32-.33-.7-.59-1.14-.77-.43-.18-.92-.27-1.46-.27H12v8h2.3c.55 0 1.06-.09 1.51-.27.45-.18.84-.43 1.16-.76.32-.33.57-.73.74-1.19.17-.47.26-.99.26-1.57v-.4c0-.58-.09-1.1-.26-1.57-.18-.47-.43-.87-.75-1.2zm-.39 3.16c0 .42-.05.79-.14 1.13-.1.33-.24.62-.43.85-.19.23-.43.41-.71.53-.29.12-.62.18-.99.18h-.91V9.12h.97c.72 0 1.27.23 1.64.69.38.46.57 1.12.57 1.99v.4zM12 0l-.66.03 3.81 3.81 1.33-1.33c3.27 1.55 5.61 4.72 5.96 8.48h1.5C23.44 4.84 18.29 0 12 0z"/></g>
<g id="accessibility"><path d="M12 2c1.1 0 2 .9 2 2s-.9 2-2 2-2-.9-2-2 .9-2 2-2zm9 7h-6v13h-2v-6h-2v6H9V9H3V7h18v2z"/></g>
<g id="account-balance"><path d="M4 10v7h3v-7H4zm6 0v7h3v-7h-3zM2 22h19v-3H2v3zm14-12v7h3v-7h-3zm-4.5-9L2 6v2h19V6l-9.5-5z"/></g>
<g id="account-balance-wallet"><path d="M21 18v1c0 1.1-.9 2-2 2H5c-1.11 0-2-.9-2-2V5c0-1.1.89-2 2-2h14c1.1 0 2 .9 2 2v1h-9c-1.11 0-2 .9-2 2v8c0 1.1.89 2 2 2h9zm-9-2h10V8H12v8zm4-2.5c-.83 0-1.5-.67-1.5-1.5s.67-1.5 1.5-1.5 1.5.67 1.5 1.5-.67 1.5-1.5 1.5z"/></g>
<g id="account-box"><path d="M3 5v14c0 1.1.89 2 2 2h14c1.1 0 2-.9 2-2V5c0-1.1-.9-2-2-2H5c-1.11 0-2 .9-2 2zm12 4c0 1.66-1.34 3-3 3s-3-1.34-3-3 1.34-3 3-3 3 1.34 3 3zm-9 8c0-2 4-3.1 6-3.1s6 1.1 6 3.1v1H6v-1z"/></g>
<g id="account-child"><circle cx="12" cy="13.49" r="1.5"/><path d="M12 2C6.48 2 2 6.48 2 12s4.48 10 10 10 10-4.48 10-10S17.52 2 12 2zm0 2.5c1.24 0 2.25 1.01 2.25 2.25S13.24 9 12 9 9.75 7.99 9.75 6.75 10.76 4.5 12 4.5zm5 10.56v2.5c-.45.41-.96.77-1.5 1.05v-.68c0-.34-.17-.65-.46-.92-.65-.62-1.89-1.02-3.04-1.02-.96 0-1.96.28-2.65.73l-.17.12-.21.17c.78.47 1.63.72 2.54.82l1.33.15c.37.04.66.36.66.75 0 .29-.16.53-.4.66-.28.15-.64.09-.95.09-.35 0-.69-.01-1.03-.05-.5-.06-.99-.17-1.46-.33-.49-.16-.97-.38-1.42-.64-.22-.13-.44-.27-.65-.43l-.31-.24c-.04-.02-.28-.18-.28-.23v-4.28c0-1.58 2.63-2.78 5-2.78s5 1.2 5 2.78v1.78z"/></g>
<g id="account-circle"><path d="M12 2C6.48 2 2 6.48 2 12s4.48 10 10 10 10-4.48 10-10S17.52 2 12 2zm0 3c1.66 0 3 1.34 3 3s-1.34 3-3 3-3-1.34-3-3 1.34-3 3-3zm0 14.2c-2.5 0-4.71-1.28-6-3.22.03-1.99 4-3.08 6-3.08 1.99 0 5.97 1.09 6 3.08-1.29 1.94-3.5 3.22-6 3.22z"/></g>
<g id="add"><path d="M19 13h-6v6h-2v-6H5v-2h6V5h2v6h6v2z"/></g>
<g id="add-box"><path d="M19 3H5c-1.11 0-2 .9-2 2v14c0 1.1.89 2 2 2h14c1.1 0 2-.9 2-2V5c0-1.1-.9-2-2-2zm-2 10h-4v4h-2v-4H7v-2h4V7h2v4h4v2z"/></g>
<g id="add-circle"><path d="M12 2C6.48 2 2 6.48 2 12s4.48 10 10 10 10-4.48 10-10S17.52 2 12 2zm5 11h-4v4h-2v-4H7v-2h4V7h2v4h4v2z"/></g>
<g id="add-circle-outline"><path d="M13 7h-2v4H7v2h4v4h2v-4h4v-2h-4V7zm-1-5C6.48 2 2 6.48 2 12s4.48 10 10 10 10-4.48 10-10S17.52 2 12 2zm0 18c-4.41 0-8-3.59-8-8s3.59-8 8-8 8 3.59 8 8-3.59 8-8 8z"/></g>
<g id="add-shopping-cart"><path d="M11 9h2V6h3V4h-3V1h-2v3H8v2h3v3zm-4 9c-1.1 0-1.99.9-1.99 2S5.9 22 7 22s2-.9 2-2-.9-2-2-2zm10 0c-1.1 0-1.99.9-1.99 2s.89 2 1.99 2 2-.9 2-2-.9-2-2-2zm-9.83-3.25l.03-.12.9-1.63h7.45c.75 0 1.41-.41 1.75-1.03l3.86-7.01L19.42 4h-.01l-1.1 2-2.76 5H8.53l-.13-.27L6.16 6l-.95-2-.94-2H1v2h2l3.6 7.59-1.35 2.45c-.16.28-.25.61-.25.96 0 1.1.9 2 2 2h12v-2H7.42c-.13 0-.25-.11-.25-.25z"/></g>
<g id="alarm"><path d="M22 5.72l-4.6-3.86-1.29 1.53 4.6 3.86L22 5.72zM7.88 3.39L6.6 1.86 2 5.71l1.29 1.53 4.59-3.85zM12.5 8H11v6l4.75 2.85.75-1.23-4-2.37V8zM12 4c-4.97 0-9 4.03-9 9s4.02 9 9 9c4.97 0 9-4.03 9-9s-4.03-9-9-9zm0 16c-3.87 0-7-3.13-7-7s3.13-7 7-7 7 3.13 7 7-3.13 7-7 7z"/></g>
<g id="alarm-add"><path d="M7.88 3.39L6.6 1.86 2 5.71l1.29 1.53 4.59-3.85zM22 5.72l-4.6-3.86-1.29 1.53 4.6 3.86L22 5.72zM12 4c-4.97 0-9 4.03-9 9s4.02 9 9 9c4.97 0 9-4.03 9-9s-4.03-9-9-9zm0 16c-3.87 0-7-3.13-7-7s3.13-7 7-7 7 3.13 7 7-3.13 7-7 7zm1-11h-2v3H8v2h3v3h2v-3h3v-2h-3V9z"/></g>
<g id="alarm-off"><path d="M12 6c3.87 0 7 3.13 7 7 0 .84-.16 1.65-.43 2.4l1.52 1.52c.58-1.19.91-2.51.91-3.92 0-4.97-4.03-9-9-9-1.41 0-2.73.33-3.92.91L9.6 6.43C10.35 6.16 11.16 6 12 6zm10-.28l-4.6-3.86-1.29 1.53 4.6 3.86L22 5.72zM2.92 2.29L1.65 3.57 2.98 4.9l-1.11.93 1.42 1.42 1.11-.94.8.8C3.83 8.69 3 10.75 3 13c0 4.97 4.02 9 9 9 2.25 0 4.31-.83 5.89-2.2l2.2 2.2 1.27-1.27L3.89 3.27l-.97-.98zm13.55 16.1C15.26 19.39 13.7 20 12 20c-3.87 0-7-3.13-7-7 0-1.7.61-3.26 1.61-4.47l9.86 9.86zM8.02 3.28L6.6 1.86l-.86.71 1.42 1.42.86-.71z"/></g>
<g id="alarm-on"><path d="M22 5.72l-4.6-3.86-1.29 1.53 4.6 3.86L22 5.72zM7.88 3.39L6.6 1.86 2 5.71l1.29 1.53 4.59-3.85zM12 4c-4.97 0-9 4.03-9 9s4.02 9 9 9c4.97 0 9-4.03 9-9s-4.03-9-9-9zm0 16c-3.87 0-7-3.13-7-7s3.13-7 7-7 7 3.13 7 7-3.13 7-7 7zm-1.46-5.47L8.41 12.4l-1.06 1.06 3.18 3.18 6-6-1.06-1.06-4.93 4.95z"/></g>
<g id="android"><path d="M6 18c0 .55.45 1 1 1h1v3.5c0 .83.67 1.5 1.5 1.5s1.5-.67 1.5-1.5V19h2v3.5c0 .83.67 1.5 1.5 1.5s1.5-.67 1.5-1.5V19h1c.55 0 1-.45 1-1V8H6v10zM3.5 8C2.67 8 2 8.67 2 9.5v7c0 .83.67 1.5 1.5 1.5S5 17.33 5 16.5v-7C5 8.67 4.33 8 3.5 8zm17 0c-.83 0-1.5.67-1.5 1.5v7c0 .83.67 1.5 1.5 1.5s1.5-.67 1.5-1.5v-7c0-.83-.67-1.5-1.5-1.5zm-4.97-5.84l1.3-1.3c.2-.2.2-.51 0-.71-.2-.2-.51-.2-.71 0l-1.48 1.48C13.85 1.23 12.95 1 12 1c-.96 0-1.86.23-2.66.63L7.85.15c-.2-.2-.51-.2-.71 0-.2.2-.2.51 0 .71l1.31 1.31C6.97 3.26 6 5.01 6 7h12c0-1.99-.97-3.75-2.47-4.84zM10 5H9V4h1v1zm5 0h-1V4h1v1z"/></g>
<g id="announcement"><path d="M20 2H4c-1.1 0-1.99.9-1.99 2L2 22l4-4h14c1.1 0 2-.9 2-2V4c0-1.1-.9-2-2-2zm-7 9h-2V5h2v6zm0 4h-2v-2h2v2z"/></g>
<g id="apps"><path d="M4 8h4V4H4v4zm6 12h4v-4h-4v4zm-6 0h4v-4H4v4zm0-6h4v-4H4v4zm6 0h4v-4h-4v4zm6-10v4h4V4h-4zm-6 4h4V4h-4v4zm6 6h4v-4h-4v4zm0 6h4v-4h-4v4z"/></g>
<g id="archive"><path d="M20.54 5.23l-1.39-1.68C18.88 3.21 18.47 3 18 3H6c-.47 0-.88.21-1.16.55L3.46 5.23C3.17 5.57 3 6.02 3 6.5V19c0 1.1.9 2 2 2h14c1.1 0 2-.9 2-2V6.5c0-.48-.17-.93-.46-1.27zM12 17.5L6.5 12H10v-2h4v2h3.5L12 17.5zM5.12 5l.81-1h12l.94 1H5.12z"/></g>
<g id="arrow-back"><path d="M20 11H7.83l5.59-5.59L12 4l-8 8 8 8 1.41-1.41L7.83 13H20v-2z"/></g>
<g id="arrow-drop-down"><path d="M7 10l5 5 5-5z"/></g>
<g id="arrow-drop-down-circle"><path d="M12 2C6.48 2 2 6.48 2 12s4.48 10 10 10 10-4.48 10-10S17.52 2 12 2zm0 12l-4-4h8l-4 4z"/></g>
<g id="arrow-drop-up"><path d="M7 14l5-5 5 5z"/></g>
<g id="cached"><path d="M19 8l-4 4h3c0 3.31-2.69 6-6 6-1.01 0-1.97-.25-2.8-.7l-1.46 1.46C8.97 19.54 10.43 20 12 20c4.42 0 8-3.58 8-8h3l-4-4zM6 12c0-3.31 2.69-6 6-6 1.01 0 1.97.25 2.8.7l1.46-1.46C15.03 4.46 13.57 4 12 4c-4.42 0-8 3.58-8 8H1l4 4 4-4H6z"/></g>
<g id="check"><path d="M9 16.17L4.83 12l-1.42 1.41L9 19 21 7l-1.41-1.41z"/></g>
<g id="undo"><path d="M12.5 8c-2.65 0-5.05.99-6.9 2.6L2 7v9h9l-3.62-3.62c1.39-1.16 3.16-1.88 5.12-1.88 3.54 0 6.55 2.31 7.6 5.5l2.37-.78C21.08 11.03 17.15 8 12.5 8z"/></g>
<g id="redo"><path d="M18.4 10.6C16.55 8.99 14.15 8 11.5 8c-4.65 0-8.58 3.03-9.96 7.22L3.9 16c1.05-3.19 4.05-5.5 7.6-5.5 1.95 0 3.73.72 5.12 1.88L13 16h9V7l-3.6 3.6z"/></g>
<g id="content-copy"><path d="M16 1H4c-1.1 0-2 .9-2 2v14h2V3h12V1zm3 4H8c-1.1 0-2 .9-2 2v14c0 1.1.9 2 2 2h11c1.1 0 2-.9 2-2V7c0-1.1-.9-2-2-2zm0 16H8V7h11v14z"/></g>
<g id="content-cut"><path d="M9.64 7.64c.23-.5.36-1.05.36-1.64 0-2.21-1.79-4-4-4S2 3.79 2 6s1.79 4 4 4c.59 0 1.14-.13 1.64-.36L10 12l-2.36 2.36C7.14 14.13 6.59 14 6 14c-2.21 0-4 1.79-4 4s1.79 4 4 4 4-1.79 4-4c0-.59-.13-1.14-.36-1.64L12 14l7 7h3v-1L9.64 7.64zM6 8c-1.1 0-2-.89-2-2s.9-2 2-2 2 .89 2 2-.9 2-2 2zm0 12c-1.1 0-2-.89-2-2s.9-2 2-2 2 .89 2 2-.9 2-2 2zm6-7.5c-.28 0-.5-.22-.5-.5s.22-.5.5-.5.5.22.5.5-.22.5-.5.5zM19 3l-6 6 2 2 7-7V3z"/></g>
<g id="content-paste"><path d="M19 2h-4.18C14.4.84 13.3 0 12 0c-1.3 0-2.4.84-2.82 2H5c-1.1 0-2 .9-2 2v16c0 1.1.9 2 2 2h14c1.1 0 2-.9 2-2V4c0-1.1-.9-2-2-2zm-7 0c.55 0 1 .45 1 1s-.45 1-1 1-1-.45-1-1 .45-1 1-1zm7 18H5V4h2v3h10V4h2v16z"/></g>
<g id="cake"><path d="M12 6c1.11 0 2-.9 2-2 0-.38-.1-.73-.29-1.03L12 0l-1.71 2.97c-.19.3-.29.65-.29 1.03 0 1.1.9 2 2 2zm4.6 9.99l-1.07-1.07-1.08 1.07c-1.3 1.3-3.58 1.31-4.89 0l-1.07-1.07-1.09 1.07C6.75 16.64 5.88 17 4.96 17c-.73 0-1.4-.23-1.96-.61V21c0 .55.45 1 1 1h16c.55 0 1-.45 1-1v-4.61c-.56.38-1.23.61-1.96.61-.92 0-1.79-.36-2.44-1.01zM18 9h-5V7h-2v2H6c-1.66 0-3 1.34-3 3v1.54c0 1.08.88 1.96 1.96 1.96.52 0 1.02-.2 1.38-.57l2.14-2.13 2.13 2.13c.74.74 2.03.74 2.77 0l2.14-2.13 2.13 2.13c.37.37.86.57 1.38.57 1.08 0 1.96-.88 1.96-1.96V12C21 10.34 19.66 9 18 9z"/></g>
<g id="domain"><path d="M12 7V3H2v18h20V7H12zM6 19H4v-2h2v2zm0-4H4v-2h2v2zm0-4H4V9h2v2zm0-4H4V5h2v2zm4 12H8v-2h2v2zm0-4H8v-2h2v2zm0-4H8V9h2v2zm0-4H8V5h2v2zm10 12h-8v-2h2v-2h-2v-2h2v-2h-2V9h8v10zm-2-8h-2v2h2v-2zm0 4h-2v2h2v-2z"/></g>
<g id="group"><path d="M16 11c1.66 0 2.99-1.34 2.99-3S17.66 5 16 5c-1.66 0-3 1.34-3 3s1.34 3 3 3zm-8 0c1.66 0 2.99-1.34 2.99-3S9.66 5 8 5C6.34 5 5 6.34 5 8s1.34 3 3 3zm0 2c-2.33 0-7 1.17-7 3.5V19h14v-2.5c0-2.33-4.67-3.5-7-3.5zm8 0c-.29 0-.62.02-.97.05 1.16.84 1.97 1.97 1.97 3.45V19h6v-2.5c0-2.33-4.67-3.5-7-3.5z"/></g>
<g id="group-add"><path d="M8 10H5V7H3v3H0v2h3v3h2v-3h3v-2zm10 1c1.66 0 2.99-1.34 2.99-3S19.66 5 18 5c-.32 0-.63.05-.91.14.57.81.9 1.79.9 2.86s-.34 2.04-.9 2.86c.28.09.59.14.91.14zm-5 0c1.66 0 2.99-1.34 2.99-3S14.66 5 13 5c-1.66 0-3 1.34-3 3s1.34 3 3 3zm6.62 2.16c.83.73 1.38 1.66 1.38 2.84v2h3v-2c0-1.54-2.37-2.49-4.38-2.84zM13 13c-2 0-6 1-6 3v2h12v-2c0-2-4-3-6-3z"/></g>
<g id="location-city"><path d="M15 11V5l-3-3-3 3v2H3v14h18V11h-6zm-8 8H5v-2h2v2zm0-4H5v-2h2v2zm0-4H5V9h2v2zm6 8h-2v-2h2v2zm0-4h-2v-2h2v2zm0-4h-2V9h2v2zm0-4h-2V5h2v2zm6 12h-2v-2h2v2zm0-4h-2v-2h2v2z"/></g>
<g id="mood"><path d="M11.99 2C6.47 2 2 6.48 2 12s4.47 10 9.99 10C17.52 22 22 17.52 22 12S17.52 2 11.99 2zM12 20c-4.42 0-8-3.58-8-8s3.58-8 8-8 8 3.58 8 8-3.58 8-8 8zm3.5-9c.83 0 1.5-.67 1.5-1.5S16.33 8 15.5 8 14 8.67 14 9.5s.67 1.5 1.5 1.5zm-7 0c.83 0 1.5-.67 1.5-1.5S9.33 8 8.5 8 7 8.67 7 9.5 7.67 11 8.5 11zm3.5 6.5c2.33 0 4.31-1.46 5.11-3.5H6.89c.8 2.04 2.78 3.5 5.11 3.5z"/></g>
<g id="notifications"><path d="M11.5 22c1.1 0 2-.9 2-2h-4c0 1.1.9 2 2 2zm6.5-6v-5.5c0-3.07-2.13-5.64-5-6.32V3.5c0-.83-.67-1.5-1.5-1.5S10 2.67 10 3.5v.68c-2.87.68-5 3.25-5 6.32V16l-2 2v1h17v-1l-2-2z"/></g>
<g id="notifications-none"><path d="M11.5 22c1.1 0 2-.9 2-2h-4c0 1.1.9 2 2 2zm6.5-6v-5.5c0-3.07-2.13-5.64-5-6.32V3.5c0-.83-.67-1.5-1.5-1.5S10 2.67 10 3.5v.68c-2.87.68-5 3.25-5 6.32V16l-2 2v1h17v-1l-2-2zm-2 1H7v-6.5C7 8.01 9.01 6 11.5 6S16 8.01 16 10.5V17z"/></g>
<g id="notifications-off"><path d="M11.5 22c1.1 0 2-.9 2-2h-4c0 1.1.9 2 2 2zM18 10.5c0-3.07-2.13-5.64-5-6.32V3.5c0-.83-.67-1.5-1.5-1.5S10 2.67 10 3.5v.68c-.51.12-.99.32-1.45.56L18 14.18V10.5zm-.27 8.5l2 2L21 19.73 4.27 3 3 4.27l2.92 2.92C5.34 8.16 5 9.29 5 10.5V16l-2 2v1h14.73z"/></g>
<g id="notifications-on"><path d="M6.58 3.58L5.15 2.15C2.76 3.97 1.18 6.8 1.03 10h2c.15-2.65 1.51-4.97 3.55-6.42zM19.97 10h2c-.15-3.2-1.73-6.03-4.13-7.85l-1.43 1.43c2.05 1.45 3.41 3.77 3.56 6.42zm-1.97.5c0-3.07-2.13-5.64-5-6.32V3.5c0-.83-.67-1.5-1.5-1.5S10 2.67 10 3.5v.68c-2.87.68-5 3.25-5 6.32V16l-2 2v1h17v-1l-2-2v-5.5zM11.5 22c.14 0 .27-.01.4-.04.65-.13 1.19-.58 1.44-1.18.1-.24.16-.5.16-.78h-4c0 1.1.9 2 2 2z"/></g>
<g id="notifications-paused"><path d="M11.5 22c1.1 0 2-.9 2-2h-4c0 1.1.9 2 2 2zm6.5-6v-5.5c0-3.07-2.13-5.64-5-6.32V3.5c0-.83-.67-1.5-1.5-1.5S10 2.67 10 3.5v.68c-2.87.68-5 3.25-5 6.32V16l-2 2v1h17v-1l-2-2zm-4-6.2l-2.8 3.4H14V15H9v-1.8l2.8-3.4H9V8h5v1.8z"/></g>
<g id="pages"><path d="M3 5v6h5L7 7l4 1V3H5c-1.1 0-2 .9-2 2zm5 8H3v6c0 1.1.9 2 2 2h6v-5l-4 1 1-4zm9 4l-4-1v5h6c1.1 0 2-.9 2-2v-6h-5l1 4zm2-14h-6v5l4-1-1 4h5V5c0-1.1-.9-2-2-2z"/></g>
<g id="party-mode"><path d="M20 4h-3.17L15 2H9L7.17 4H4c-1.1 0-2 .9-2 2v12c0 1.1.9 2 2 2h16c1.1 0 2-.9 2-2V6c0-1.1-.9-2-2-2zm-8 3c1.63 0 3.06.79 3.98 2H12c-1.66 0-3 1.34-3 3 0 .35.07.69.18 1H7.1c-.06-.32-.1-.66-.1-1 0-2.76 2.24-5 5-5zm0 10c-1.63 0-3.06-.79-3.98-2H12c1.66 0 3-1.34 3-3 0-.35-.07-.69-.18-1h2.08c.07.32.1.66.1 1 0 2.76-2.24 5-5 5z"/></g>
<g id="people"><path d="M16 11c1.66 0 2.99-1.34 2.99-3S17.66 5 16 5c-1.66 0-3 1.34-3 3s1.34 3 3 3zm-8 0c1.66 0 2.99-1.34 2.99-3S9.66 5 8 5C6.34 5 5 6.34 5 8s1.34 3 3 3zm0 2c-2.33 0-7 1.17-7 3.5V19h14v-2.5c0-2.33-4.67-3.5-7-3.5zm8 0c-.29 0-.62.02-.97.05 1.16.84 1.97 1.97 1.97 3.45V19h6v-2.5c0-2.33-4.67-3.5-7-3.5z"/></g>
<g id="people-outline"><path d="M16.5 13c-1.2 0-3.07.34-4.5 1-1.43-.67-3.3-1-4.5-1C5.33 13 1 14.08 1 16.25V19h22v-2.75c0-2.17-4.33-3.25-6.5-3.25zm-4 4.5h-10v-1.25c0-.54 2.56-1.75 5-1.75s5 1.21 5 1.75v1.25zm9 0H14v-1.25c0-.46-.2-.86-.52-1.22.88-.3 1.96-.53 3.02-.53 2.44 0 5 1.21 5 1.75v1.25zM7.5 12c1.93 0 3.5-1.57 3.5-3.5S9.43 5 7.5 5 4 6.57 4 8.5 5.57 12 7.5 12zm0-5.5c1.1 0 2 .9 2 2s-.9 2-2 2-2-.9-2-2 .9-2 2-2zm9 5.5c1.93 0 3.5-1.57 3.5-3.5S18.43 5 16.5 5 13 6.57 13 8.5s1.57 3.5 3.5 3.5zm0-5.5c1.1 0 2 .9 2 2s-.9 2-2 2-2-.9-2-2 .9-2 2-2z"/></g>
<g id="person"><path d="M12 12c2.21 0 4-1.79 4-4s-1.79-4-4-4-4 1.79-4 4 1.79 4 4 4zm0 2c-2.67 0-8 1.34-8 4v2h16v-2c0-2.66-5.33-4-8-4z"/></g>
<g id="person-add"><path d="M15 12c2.21 0 4-1.79 4-4s-1.79-4-4-4-4 1.79-4 4 1.79 4 4 4zm-9-2V7H4v3H1v2h3v3h2v-3h3v-2H6zm9 4c-2.67 0-8 1.34-8 4v2h16v-2c0-2.66-5.33-4-8-4z"/></g>
<g id="person-outline"><path d="M12 5.9c1.16 0 2.1.94 2.1 2.1s-.94 2.1-2.1 2.1S9.9 9.16 9.9 8s.94-2.1 2.1-2.1m0 9c2.97 0 6.1 1.46 6.1 2.1v1.1H5.9V17c0-.64 3.13-2.1 6.1-2.1M12 4C9.79 4 8 5.79 8 8s1.79 4 4 4 4-1.79 4-4-1.79-4-4-4zm0 9c-2.67 0-8 1.34-8 4v3h16v-3c0-2.66-5.33-4-8-4z"/></g>
<g id="plus-one"><path d="M10 8H8v4H4v2h4v4h2v-4h4v-2h-4zm4.5-1.92V7.9l2.5-.5V18h2V5z"/></g>
<g id="poll"><path d="M19 3H5c-1.1 0-2 .9-2 2v14c0 1.1.9 2 2 2h14c1.1 0 2-.9 2-2V5c0-1.1-.9-2-2-2zM9 17H7v-7h2v7zm4 0h-2V7h2v10zm4 0h-2v-4h2v4z"/></g>
<g id="public"><path d="M12 2C6.48 2 2 6.48 2 12s4.48 10 10 10 10-4.48 10-10S17.52 2 12 2zm-1 17.93c-3.95-.49-7-3.85-7-7.93 0-.62.08-1.21.21-1.79L9 15v1c0 1.1.9 2 2 2v1.93zm6.9-2.54c-.26-.81-1-1.39-1.9-1.39h-1v-3c0-.55-.45-1-1-1H8v-2h2c.55 0 1-.45 1-1V7h2c1.1 0 2-.9 2-2v-.41c2.93 1.19 5 4.06 5 7.41 0 2.08-.8 3.97-2.1 5.39z"/></g>
<g id="school"><path d="M5 13.18v4L12 21l7-3.82v-4L12 17l-7-3.82zM12 3L1 9l11 6 9-4.91V17h2V9L12 3z"/></g>
<g id="share"><path d="M18 16.08c-.76 0-1.44.3-1.96.77L8.91 12.7c.05-.23.09-.46.09-.7s-.04-.47-.09-.7l7.05-4.11c.54.5 1.25.81 2.04.81 1.66 0 3-1.34 3-3s-1.34-3-3-3-3 1.34-3 3c0 .24.04.47.09.7L8.04 9.81C7.5 9.31 6.79 9 6 9c-1.66 0-3 1.34-3 3s1.34 3 3 3c.79 0 1.5-.31 2.04-.81l7.12 4.16c-.05.21-.08.43-.08.65 0 1.61 1.31 2.92 2.92 2.92 1.61 0 2.92-1.31 2.92-2.92s-1.31-2.92-2.92-2.92z"/></g>
<g id="whatshot"><path d="M13.5.67s.74 2.65.74 4.8c0 2.06-1.35 3.73-3.41 3.73-2.07 0-3.63-1.67-3.63-3.73l.03-.36C5.21 7.51 4 10.62 4 14c0 4.42 3.58 8 8 8s8-3.58 8-8C20 8.61 17.41 3.8 13.5.67zM11.71 19c-1.78 0-3.22-1.4-3.22-3.14 0-1.62 1.05-2.76 2.81-3.12 1.77-.36 3.6-1.21 4.62-2.58.39 1.29.59 2.65.59 4.04 0 2.65-2.15 4.8-4.8 4.8z"/></g>
<g id="business"><path d="M12 7V3H2v18h20V7H12zM6 19H4v-2h2v2zm0-4H4v-2h2v2zm0-4H4V9h2v2zm0-4H4V5h2v2zm4 12H8v-2h2v2zm0-4H8v-2h2v2zm0-4H8V9h2v2zm0-4H8V5h2v2zm10 12h-8v-2h2v-2h-2v-2h2v-2h-2V9h8v10zm-2-8h-2v2h2v-2zm0 4h-2v2h2v-2z"/></g>
<g id="call"><path d="M6.62 10.79c1.44 2.83 3.76 5.14 6.59 6.59l2.2-2.2c.27-.27.67-.36 1.02-.24 1.12.37 2.33.57 3.57.57.55 0 1 .45 1 1V20c0 .55-.45 1-1 1-9.39 0-17-7.61-17-17 0-.55.45-1 1-1h3.5c.55 0 1 .45 1 1 0 1.25.2 2.45.57 3.57.11.35.03.74-.25 1.02l-2.2 2.2z"/></g>
<g id="call-end"><path d="M12 9c-1.6 0-3.15.25-4.6.72v3.1c0 .39-.23.74-.56.9-.98.49-1.87 1.12-2.66 1.85-.18.18-.43.28-.7.28-.28 0-.53-.11-.71-.29L.29 13.08c-.18-.17-.29-.42-.29-.7 0-.28.11-.53.29-.71C3.34 8.78 7.46 7 12 7s8.66 1.78 11.71 4.67c.18.18.29.43.29.71 0 .28-.11.53-.29.71l-2.48 2.48c-.18.18-.43.29-.71.29-.27 0-.52-.11-.7-.28-.79-.74-1.69-1.36-2.67-1.85-.33-.16-.56-.5-.56-.9v-3.1C15.15 9.25 13.6 9 12 9z"/></g>
<g id="call-made"><path d="M9 5v2h6.59L4 18.59 5.41 20 17 8.41V15h2V5z"/></g>
<g id="call-merge"><path d="M17 20.41L18.41 19 15 15.59 13.59 17 17 20.41zM7.5 8H11v5.59L5.59 19 7 20.41l6-6V8h3.5L12 3.5 7.5 8z"/></g>
<g id="call-missed"><path d="M19.59 7L12 14.59 6.41 9H11V7H3v8h2v-4.59l7 7 9-9z"/></g>
<g id="call-received"><path d="M20 5.41L18.59 4 7 15.59V9H5v10h10v-2H8.41z"/></g>
<g id="call-split"><path d="M14 4l2.29 2.29-2.88 2.88 1.42 1.42 2.88-2.88L20 10V4zm-4 0H4v6l2.29-2.29 4.71 4.7V20h2v-8.41l-5.29-5.3z"/></g>
<g id="chat"><path d="M20 2H4c-1.1 0-1.99.9-1.99 2L2 22l4-4h14c1.1 0 2-.9 2-2V4c0-1.1-.9-2-2-2zM6 9h12v2H6V9zm8 5H6v-2h8v2zm4-6H6V6h12v2z"/></g>
<g id="clear-all"><path d="M5 13h14v-2H5v2zm-2 4h14v-2H3v2zM7 7v2h14V7H7z"/></g>
<g id="comment"><path d="M21.99 4c0-1.1-.89-2-1.99-2H4c-1.1 0-2 .9-2 2v12c0 1.1.9 2 2 2h14l4 4-.01-18zM18 14H6v-2h12v2zm0-3H6V9h12v2zm0-3H6V6h12v2z"/></g>
<g id="contacts"><path d="M20 0H4v2h16V0zM4 24h16v-2H4v2zM20 4H4c-1.1 0-2 .9-2 2v12c0 1.1.9 2 2 2h16c1.1 0 2-.9 2-2V6c0-1.1-.9-2-2-2zm-8 2.75c1.24 0 2.25 1.01 2.25 2.25s-1.01 2.25-2.25 2.25S9.75 10.24 9.75 9 10.76 6.75 12 6.75zM17 17H7v-1.5c0-1.67 3.33-2.5 5-2.5s5 .83 5 2.5V17z"/></g>
<g id="dialer-sip"><path d="M17 3h-1v5h1V3zm-2 2h-2V4h2V3h-3v3h2v1h-2v1h3V5zm3-2v5h1V6h2V3h-3zm2 2h-1V4h1v1zm0 10.5c-1.25 0-2.45-.2-3.57-.57-.35-.11-.74-.03-1.01.24l-2.2 2.2c-2.83-1.44-5.15-3.75-6.59-6.59l2.2-2.21c.27-.26.35-.65.24-1C8.7 6.45 8.5 5.25 8.5 4c0-.55-.45-1-1-1H4c-.55 0-1 .45-1 1 0 9.39 7.61 17 17 17 .55 0 1-.45 1-1v-3.5c0-.55-.45-1-1-1z"/></g>
<g id="dialpad"><path d="M12 19c-1.1 0-2 .9-2 2s.9 2 2 2 2-.9 2-2-.9-2-2-2zM6 1c-1.1 0-2 .9-2 2s.9 2 2 2 2-.9 2-2-.9-2-2-2zm0 6c-1.1 0-2 .9-2 2s.9 2 2 2 2-.9 2-2-.9-2-2-2zm0 6c-1.1 0-2 .9-2 2s.9 2 2 2 2-.9 2-2-.9-2-2-2zm12-8c1.1 0 2-.9 2-2s-.9-2-2-2-2 .9-2 2 .9 2 2 2zm-6 8c-1.1 0-2 .9-2 2s.9 2 2 2 2-.9 2-2-.9-2-2-2zm6 0c-1.1 0-2 .9-2 2s.9 2 2 2 2-.9 2-2-.9-2-2-2zm0-6c-1.1 0-2 .9-2 2s.9 2 2 2 2-.9 2-2-.9-2-2-2zm-6 0c-1.1 0-2 .9-2 2s.9 2 2 2 2-.9 2-2-.9-2-2-2zm0-6c-1.1 0-2 .9-2 2s.9 2 2 2 2-.9 2-2-.9-2-2-2z"/></g>
<g id="dnd-on"><path d="M12 2C6.48 2 2 6.48 2 12s4.48 10 10 10 10-4.48 10-10S17.52 2 12 2zm0 18c-4.42 0-8-3.58-8-8 0-1.85.63-3.55 1.69-4.9L16.9 18.31C15.55 19.37 13.85 20 12 20zm6.31-3.1L7.1 5.69C8.45 4.63 10.15 4 12 4c4.42 0 8 3.58 8 8 0 1.85-.63 3.55-1.69 4.9z"/></g>
<g id="email"><path d="M20 4H4c-1.1 0-1.99.9-1.99 2L2 18c0 1.1.9 2 2 2h16c1.1 0 2-.9 2-2V6c0-1.1-.9-2-2-2zm0 4l-8 5-8-5V6l8 5 8-5v2z"/></g>
<g id="forum"><path d="M21 6h-2v9H6v2c0 .55.45 1 1 1h11l4 4V7c0-.55-.45-1-1-1zm-4 6V3c0-.55-.45-1-1-1H3c-.55 0-1 .45-1 1v14l4-4h10c.55 0 1-.45 1-1z"/></g>
<g id="import-export"><path d="M9 3L5 6.99h3V14h2V6.99h3L9 3zm7 14.01V10h-2v7.01h-3L15 21l4-3.99h-3z"/></g>
<g id="invert-colors-off"><path d="M20.65 20.87l-2.35-2.35-6.3-6.29-3.56-3.57-1.42-1.41L4.27 4.5 3 5.77l2.78 2.78c-2.55 3.14-2.36 7.76.56 10.69C7.9 20.8 9.95 21.58 12 21.58c1.79 0 3.57-.59 5.03-1.78l2.7 2.7L21 21.23l-.35-.36zM12 19.59c-1.6 0-3.11-.62-4.24-1.76C6.62 16.69 6 15.19 6 13.59c0-1.32.43-2.57 1.21-3.6L12 14.77v4.82zM12 5.1v4.58l7.25 7.26c1.37-2.96.84-6.57-1.6-9.01L12 2.27l-3.7 3.7 1.41 1.41L12 5.1z"/></g>
<g id="invert-colors-on"><path d="M17.66 7.93L12 2.27 6.34 7.93c-3.12 3.12-3.12 8.19 0 11.31C7.9 20.8 9.95 21.58 12 21.58c2.05 0 4.1-.78 5.66-2.34 3.12-3.12 3.12-8.19 0-11.31zM12 19.59c-1.6 0-3.11-.62-4.24-1.76C6.62 16.69 6 15.19 6 13.59s.62-3.11 1.76-4.24L12 5.1v14.49z"/></g>
<g id="live-help"><path d="M19 2H5c-1.11 0-2 .9-2 2v14c0 1.1.89 2 2 2h4l3 3 3-3h4c1.1 0 2-.9 2-2V4c0-1.1-.9-2-2-2zm-6 16h-2v-2h2v2zm2.07-7.75l-.9.92C13.45 11.9 13 12.5 13 14h-2v-.5c0-1.1.45-2.1 1.17-2.83l1.24-1.26c.37-.36.59-.86.59-1.41 0-1.1-.9-2-2-2s-2 .9-2 2H8c0-2.21 1.79-4 4-4s4 1.79 4 4c0 .88-.36 1.68-.93 2.25z"/></g>
<g id="location-off"><path d="M12 6.5c1.38 0 2.5 1.12 2.5 2.5 0 .74-.33 1.39-.83 1.85l3.63 3.63c.98-1.86 1.7-3.8 1.7-5.48 0-3.87-3.13-7-7-7-1.98 0-3.76.83-5.04 2.15l3.19 3.19c.46-.52 1.11-.84 1.85-.84zm4.37 9.6l-4.63-4.63-.11-.11L3.27 3 2 4.27l3.18 3.18C5.07 7.95 5 8.47 5 9c0 5.25 7 13 7 13s1.67-1.85 3.38-4.35L18.73 21 20 19.73l-3.63-3.63z"/></g>
<g id="location-on"><path d="M12 2C8.13 2 5 5.13 5 9c0 5.25 7 13 7 13s7-7.75 7-13c0-3.87-3.13-7-7-7zm0 9.5c-1.38 0-2.5-1.12-2.5-2.5s1.12-2.5 2.5-2.5 2.5 1.12 2.5 2.5-1.12 2.5-2.5 2.5z"/></g>
<g id="message"><path d="M20 2H4c-1.1 0-1.99.9-1.99 2L2 22l4-4h14c1.1 0 2-.9 2-2V4c0-1.1-.9-2-2-2zm-2 12H6v-2h12v2zm0-3H6V9h12v2zm0-3H6V6h12v2z"/></g>
<g id="messenger"><path d="M20 2H4c-1.1 0-2 .9-2 2v18l4-4h14c1.1 0 2-.9 2-2V4c0-1.1-.9-2-2-2z"/></g>
<g id="no-sim"><path d="M18.99 5c0-1.1-.89-2-1.99-2h-7L7.66 5.34 19 16.68 18.99 5zM3.65 3.88L2.38 5.15 5 7.77V19c0 1.1.9 2 2 2h10.01c.35 0 .67-.1.96-.26l1.88 1.88 1.27-1.27L3.65 3.88z"/></g>
<g id="phone"><path d="M6.62 10.79c1.44 2.83 3.76 5.14 6.59 6.59l2.2-2.2c.27-.27.67-.36 1.02-.24 1.12.37 2.33.57 3.57.57.55 0 1 .45 1 1V20c0 .55-.45 1-1 1-9.39 0-17-7.61-17-17 0-.55.45-1 1-1h3.5c.55 0 1 .45 1 1 0 1.25.2 2.45.57 3.57.11.35.03.74-.25 1.02l-2.2 2.2z"/></g>
<g id="portable-wifi-off"><path d="M17.56 14.24c.28-.69.44-1.45.44-2.24 0-3.31-2.69-6-6-6-.79 0-1.55.16-2.24.44l1.62 1.62c.2-.03.41-.06.62-.06 2.21 0 4 1.79 4 4 0 .21-.02.42-.05.63l1.61 1.61zM12 4c4.42 0 8 3.58 8 8 0 1.35-.35 2.62-.95 3.74l1.47 1.47C21.46 15.69 22 13.91 22 12c0-5.52-4.48-10-10-10-1.91 0-3.69.55-5.21 1.47l1.46 1.46C9.37 4.34 10.65 4 12 4zM3.27 2.5L2 3.77l2.1 2.1C2.79 7.57 2 9.69 2 12c0 3.7 2.01 6.92 4.99 8.65l1-1.73C5.61 17.53 4 14.96 4 12c0-1.76.57-3.38 1.53-4.69l1.43 1.44C6.36 9.68 6 10.8 6 12c0 2.22 1.21 4.15 3 5.19l1-1.74c-1.19-.7-2-1.97-2-3.45 0-.65.17-1.25.44-1.79l1.58 1.58L10 12c0 1.1.9 2 2 2l.21-.02.01.01 7.51 7.51L21 20.23 4.27 3.5l-1-1z"/></g>
<g id="quick-contacts-dialer"><path d="M22 3H2C.9 3 0 3.9 0 5v14c0 1.1.9 2 2 2h20c1.1 0 1.99-.9 1.99-2L24 5c0-1.1-.9-2-2-2zM8 6c1.66 0 3 1.34 3 3s-1.34 3-3 3-3-1.34-3-3 1.34-3 3-3zm6 12H2v-1c0-2 4-3.1 6-3.1s6 1.1 6 3.1v1zm3.85-4h1.64L21 16l-1.99 1.99c-1.31-.98-2.28-2.38-2.73-3.99-.18-.64-.28-1.31-.28-2s.1-1.36.28-2c.45-1.62 1.42-3.01 2.73-3.99L21 8l-1.51 2h-1.64c-.22.63-.35 1.3-.35 2s.13 1.37.35 2z"/></g>
<g id="quick-contacts-mail"><path d="M21 8V7l-3 2-3-2v1l3 2 3-2zm1-5H2C.9 3 0 3.9 0 5v14c0 1.1.9 2 2 2h20c1.1 0 1.99-.9 1.99-2L24 5c0-1.1-.9-2-2-2zM8 6c1.66 0 3 1.34 3 3s-1.34 3-3 3-3-1.34-3-3 1.34-3 3-3zm6 12H2v-1c0-2 4-3.1 6-3.1s6 1.1 6 3.1v1zm8-6h-8V6h8v6z"/></g>
<g id="ring-volume"><path d="M23.71 16.67C20.66 13.78 16.54 12 12 12 7.46 12 3.34 13.78.29 16.67c-.18.18-.29.43-.29.71 0 .28.11.53.29.71l2.48 2.48c.18.18.43.29.71.29.27 0 .52-.11.7-.28.79-.74 1.69-1.36 2.66-1.85.33-.16.56-.5.56-.9v-3.1c1.45-.48 3-.73 4.6-.73s3.15.25 4.6.72v3.1c0 .39.23.74.56.9.98.49 1.87 1.12 2.66 1.85.18.18.43.28.7.28.28 0 .53-.11.71-.29l2.48-2.48c.18-.18.29-.43.29-.71 0-.27-.11-.52-.29-.7zM21.16 6.26l-1.41-1.41-3.56 3.55 1.41 1.41s3.45-3.52 3.56-3.55zM13 2h-2v5h2V2zM6.4 9.81L7.81 8.4 4.26 4.84 2.84 6.26c.11.03 3.56 3.55 3.56 3.55z"/></g>
<g id="stay-current-landscape"><path d="M1.01 7L1 17c0 1.1.9 2 2 2h18c1.1 0 2-.9 2-2V7c0-1.1-.9-2-2-2H3c-1.1 0-1.99.9-1.99 2zM19 7v10H5V7h14z"/></g>
<g id="stay-current-portrait"><path d="M17 1.01L7 1c-1.1 0-1.99.9-1.99 2v18c0 1.1.89 2 1.99 2h10c1.1 0 2-.9 2-2V3c0-1.1-.9-1.99-2-1.99zM17 19H7V5h10v14z"/></g>
<g id="stay-primary-landscape"><path d="M1.01 7L1 17c0 1.1.9 2 2 2h18c1.1 0 2-.9 2-2V7c0-1.1-.9-2-2-2H3c-1.1 0-1.99.9-1.99 2zM19 7v10H5V7h14z"/></g>
<g id="stay-primary-portrait"><path d="M17 1.01L7 1c-1.1 0-1.99.9-1.99 2v18c0 1.1.89 2 1.99 2h10c1.1 0 2-.9 2-2V3c0-1.1-.9-1.99-2-1.99zM17 19H7V5h10v14z"/></g>
<g id="swap-calls"><path d="M18 4l-4 4h3v7c0 1.1-.9 2-2 2s-2-.9-2-2V8c0-2.21-1.79-4-4-4S5 5.79 5 8v7H2l4 4 4-4H7V8c0-1.1.9-2 2-2s2 .9 2 2v7c0 2.21 1.79 4 4 4s4-1.79 4-4V8h3l-4-4z"/></g>
<g id="textsms"><path d="M20 2H4c-1.1 0-1.99.9-1.99 2L2 22l4-4h14c1.1 0 2-.9 2-2V4c0-1.1-.9-2-2-2zM9 11H7V9h2v2zm4 0h-2V9h2v2zm4 0h-2V9h2v2z"/></g>
<g id="voicemail"><path d="M18.5 6C15.46 6 13 8.46 13 11.5c0 1.33.47 2.55 1.26 3.5H9.74c.79-.95 1.26-2.17 1.26-3.5C11 8.46 8.54 6 5.5 6S0 8.46 0 11.5 2.46 17 5.5 17h13c3.04 0 5.5-2.46 5.5-5.5S21.54 6 18.5 6zm-13 9C3.57 15 2 13.43 2 11.5S3.57 8 5.5 8 9 9.57 9 11.5 7.43 15 5.5 15zm13 0c-1.93 0-3.5-1.57-3.5-3.5S16.57 8 18.5 8 22 9.57 22 11.5 20.43 15 18.5 15z"/></g>
<g id="vpn-key"><path d="M12.65 10C11.83 7.67 9.61 6 7 6c-3.31 0-6 2.69-6 6s2.69 6 6 6c2.61 0 4.83-1.67 5.65-4H17v4h4v-4h2v-4H12.65zM7 14c-1.1 0-2-.9-2-2s.9-2 2-2 2 .9 2 2-.9 2-2 2z"/></g>
<g id="access-alarm"><path d="M22 5.72l-4.6-3.86-1.29 1.53 4.6 3.86L22 5.72zM7.88 3.39L6.6 1.86 2 5.71l1.29 1.53 4.59-3.85zM12.5 8H11v6l4.75 2.85.75-1.23-4-2.37V8zM12 4c-4.97 0-9 4.03-9 9s4.02 9 9 9c4.97 0 9-4.03 9-9s-4.03-9-9-9zm0 16c-3.87 0-7-3.13-7-7s3.13-7 7-7 7 3.13 7 7-3.13 7-7 7z"/></g>
<g id="access-alarms"><path d="M22 5.7l-4.6-3.9-1.3 1.5 4.6 3.9L22 5.7zM7.9 3.4L6.6 1.9 2 5.7l1.3 1.5 4.6-3.8zM12.5 8H11v6l4.7 2.9.8-1.2-4-2.4V8zM12 4c-5 0-9 4-9 9s4 9 9 9 9-4 9-9-4-9-9-9zm0 16c-3.9 0-7-3.1-7-7s3.1-7 7-7 7 3.1 7 7-3.1 7-7 7z"/></g>
<g id="access-time"><path fill-opacity=".9" d="M11.99 2C6.47 2 2 6.48 2 12s4.47 10 9.99 10C17.52 22 22 17.52 22 12S17.52 2 11.99 2zM12 20c-4.42 0-8-3.58-8-8s3.58-8 8-8 8 3.58 8 8-3.58 8-8 8zM12.5 7H11v6l5.25 3.15.75-1.23-4.5-2.67z"/></g>
<g id="add-alarm"><path d="M7.88 3.39L6.6 1.86 2 5.71l1.29 1.53 4.59-3.85zM22 5.72l-4.6-3.86-1.29 1.53 4.6 3.86L22 5.72zM12 4c-4.97 0-9 4.03-9 9s4.02 9 9 9c4.97 0 9-4.03 9-9s-4.03-9-9-9zm0 16c-3.87 0-7-3.13-7-7s3.13-7 7-7 7 3.13 7 7-3.13 7-7 7zm1-11h-2v3H8v2h3v3h2v-3h3v-2h-3V9z"/></g>
<g id="airplanemode-off"><path d="M13 9V3.5c0-.83-.67-1.5-1.5-1.5S10 2.67 10 3.5v3.68l7.83 7.83L21 16v-2l-8-5zM3 5.27l4.99 4.99L2 14v2l8-2.5V19l-2 1.5V22l3.5-1 3.5 1v-1.5L13 19v-3.73L18.73 21 20 19.73 4.27 4 3 5.27z"/></g>
<g id="airplanemode-on"><path d="M10.18 9"/><path d="M21 16v-2l-8-5V3.5c0-.83-.67-1.5-1.5-1.5S10 2.67 10 3.5V9l-8 5v2l8-2.5V19l-2 1.5V22l3.5-1 3.5 1v-1.5L13 19v-5.5l8 2.5z"/></g>
<g id="battery-20"><path d="M7 17v3.67C7 21.4 7.6 22 8.33 22h7.33c.74 0 1.34-.6 1.34-1.33V17H7z"/><path fill-opacity=".3" d="M17 5.33C17 4.6 16.4 4 15.67 4H14V2h-4v2H8.33C7.6 4 7 4.6 7 5.33V17h10V5.33z"/></g>
<g id="battery-30"><path fill-opacity=".3" d="M17 5.33C17 4.6 16.4 4 15.67 4H14V2h-4v2H8.33C7.6 4 7 4.6 7 5.33V15h10V5.33z"/><path d="M7 15v5.67C7 21.4 7.6 22 8.33 22h7.33c.74 0 1.34-.6 1.34-1.33V15H7z"/></g>
<g id="battery-50"><path fill-opacity=".3" d="M17 5.33C17 4.6 16.4 4 15.67 4H14V2h-4v2H8.33C7.6 4 7 4.6 7 5.33V13h10V5.33z"/><path d="M7 13v7.67C7 21.4 7.6 22 8.33 22h7.33c.74 0 1.34-.6 1.34-1.33V13H7z"/></g>
<g id="battery-60"><path fill-opacity=".3" d="M17 5.33C17 4.6 16.4 4 15.67 4H14V2h-4v2H8.33C7.6 4 7 4.6 7 5.33V11h10V5.33z"/><path d="M7 11v9.67C7 21.4 7.6 22 8.33 22h7.33c.74 0 1.34-.6 1.34-1.33V11H7z"/></g>
<g id="battery-80"><path fill-opacity=".3" d="M17 5.33C17 4.6 16.4 4 15.67 4H14V2h-4v2H8.33C7.6 4 7 4.6 7 5.33V9h10V5.33z"/><path d="M7 9v11.67C7 21.4 7.6 22 8.33 22h7.33c.74 0 1.34-.6 1.34-1.33V9H7z"/></g>
<g id="battery-90"><path fill-opacity=".3" d="M17 5.33C17 4.6 16.4 4 15.67 4H14V2h-4v2H8.33C7.6 4 7 4.6 7 5.33V8h10V5.33z"/><path d="M7 8v12.67C7 21.4 7.6 22 8.33 22h7.33c.74 0 1.34-.6 1.34-1.33V8H7z"/></g>
<g id="battery-alert"><path d="M15.67 4H14V2h-4v2H8.33C7.6 4 7 4.6 7 5.33v15.33C7 21.4 7.6 22 8.33 22h7.33c.74 0 1.34-.6 1.34-1.33V5.33C17 4.6 16.4 4 15.67 4zM13 18h-2v-2h2v2zm0-4h-2V9h2v5z"/></g>
<g id="battery-charging-20"><path d="M11 20v-3H7v3.67C7 21.4 7.6 22 8.33 22h7.33c.74 0 1.34-.6 1.34-1.33V17h-4.4L11 20z"/><path fill-opacity=".3" d="M15.67 4H14V2h-4v2H8.33C7.6 4 7 4.6 7 5.33V17h4v-2.5H9L13 7v5.5h2L12.6 17H17V5.33C17 4.6 16.4 4 15.67 4z"/></g>
<g id="battery-charging-30"><path fill-opacity=".3" d="M15.67 4H14V2h-4v2H8.33C7.6 4 7 4.6 7 5.33v9.17h2L13 7v5.5h2l-1.07 2H17V5.33C17 4.6 16.4 4 15.67 4z"/><path d="M11 20v-5.5H7v6.17C7 21.4 7.6 22 8.33 22h7.33c.74 0 1.34-.6 1.34-1.33V14.5h-3.07L11 20z"/></g>
<g id="battery-charging-50"><path d="M14.47 13.5L11 20v-5.5H9l.53-1H7v7.17C7 21.4 7.6 22 8.33 22h7.33c.74 0 1.34-.6 1.34-1.33V13.5h-2.53z"/><path fill-opacity=".3" d="M15.67 4H14V2h-4v2H8.33C7.6 4 7 4.6 7 5.33v8.17h2.53L13 7v5.5h2l-.53 1H17V5.33C17 4.6 16.4 4 15.67 4z"/></g>
<g id="battery-charging-60"><path fill-opacity=".3" d="M15.67 4H14V2h-4v2H8.33C7.6 4 7 4.6 7 5.33V11h3.87L13 7v4h4V5.33C17 4.6 16.4 4 15.67 4z"/><path d="M13 12.5h2L11 20v-5.5H9l1.87-3.5H7v9.67C7 21.4 7.6 22 8.33 22h7.33c.74 0 1.34-.6 1.34-1.33V11h-4v1.5z"/></g>
<g id="battery-charging-80"><path fill-opacity=".3" d="M15.67 4H14V2h-4v2H8.33C7.6 4 7 4.6 7 5.33V9h4.93L13 7v2h4V5.33C17 4.6 16.4 4 15.67 4z"/><path d="M13 12.5h2L11 20v-5.5H9L11.93 9H7v11.67C7 21.4 7.6 22 8.33 22h7.33c.74 0 1.34-.6 1.34-1.33V9h-4v3.5z"/></g>
<g id="battery-charging-90"><path fill-opacity=".3" d="M15.67 4H14V2h-4v2H8.33C7.6 4 7 4.6 7 5.33V8h5.47L13 7v1h4V5.33C17 4.6 16.4 4 15.67 4z"/><path d="M13 12.5h2L11 20v-5.5H9L12.47 8H7v12.67C7 21.4 7.6 22 8.33 22h7.33c.74 0 1.34-.6 1.34-1.33V8h-4v4.5z"/></g>
<g id="battery-charging-full"><path d="M15.67 4H14V2h-4v2H8.33C7.6 4 7 4.6 7 5.33v15.33C7 21.4 7.6 22 8.33 22h7.33c.74 0 1.34-.6 1.34-1.33V5.33C17 4.6 16.4 4 15.67 4zM11 20v-5.5H9L13 7v5.5h2L11 20z"/></g>
<g id="battery-full"><path d="M15.67 4H14V2h-4v2H8.33C7.6 4 7 4.6 7 5.33v15.33C7 21.4 7.6 22 8.33 22h7.33c.74 0 1.34-.6 1.34-1.33V5.33C17 4.6 16.4 4 15.67 4z"/></g>
<g id="battery-std"><path d="M15.67 4H14V2h-4v2H8.33C7.6 4 7 4.6 7 5.33v15.33C7 21.4 7.6 22 8.33 22h7.33c.74 0 1.34-.6 1.34-1.33V5.33C17 4.6 16.4 4 15.67 4z"/></g>
<g id="battery-unknown"><path d="M15.67 4H14V2h-4v2H8.33C7.6 4 7 4.6 7 5.33v15.33C7 21.4 7.6 22 8.33 22h7.33c.74 0 1.34-.6 1.34-1.33V5.33C17 4.6 16.4 4 15.67 4zm-2.72 13.95h-1.9v-1.9h1.9v1.9zm1.35-5.26s-.38.42-.67.71c-.48.48-.83 1.15-.83 1.6h-1.6c0-.83.46-1.52.93-2l.93-.94c.27-.27.44-.65.44-1.06 0-.83-.67-1.5-1.5-1.5s-1.5.67-1.5 1.5H9c0-1.66 1.34-3 3-3s3 1.34 3 3c0 .66-.27 1.26-.7 1.69z"/></g>
<g id="bluetooth"><path d="M17.71 7.71L12 2h-1v7.59L6.41 5 5 6.41 10.59 12 5 17.59 6.41 19 11 14.41V22h1l5.71-5.71-4.3-4.29 4.3-4.29zM13 5.83l1.88 1.88L13 9.59V5.83zm1.88 10.46L13 18.17v-3.76l1.88 1.88z"/></g>
<g id="bluetooth-connected"><path d="M7 12l-2-2-2 2 2 2 2-2zm10.71-4.29L12 2h-1v7.59L6.41 5 5 6.41 10.59 12 5 17.59 6.41 19 11 14.41V22h1l5.71-5.71-4.3-4.29 4.3-4.29zM13 5.83l1.88 1.88L13 9.59V5.83zm1.88 10.46L13 18.17v-3.76l1.88 1.88zM19 10l-2 2 2 2 2-2-2-2z"/></g>
<g id="bluetooth-disabled"><path d="M13 5.83l1.88 1.88-1.6 1.6 1.41 1.41 3.02-3.02L12 2h-1v5.03l2 2v-3.2zM5.41 4L4 5.41 10.59 12 5 17.59 6.41 19 11 14.41V22h1l4.29-4.29 2.3 2.29L20 18.59 5.41 4zM13 18.17v-3.76l1.88 1.88L13 18.17z"/></g>
<g id="bluetooth-searching"><path d="M14.24 12.01l2.32 2.32c.28-.72.44-1.51.44-2.33 0-.82-.16-1.59-.43-2.31l-2.33 2.32zm5.29-5.3l-1.26 1.26c.63 1.21.98 2.57.98 4.02s-.36 2.82-.98 4.02l1.2 1.2c.97-1.54 1.54-3.36 1.54-5.31-.01-1.89-.55-3.67-1.48-5.19zm-3.82 1L10 2H9v7.59L4.41 5 3 6.41 8.59 12 3 17.59 4.41 19 9 14.41V22h1l5.71-5.71-4.3-4.29 4.3-4.29zM11 5.83l1.88 1.88L11 9.59V5.83zm1.88 10.46L11 18.17v-3.76l1.88 1.88z"/></g>
<g id="brightness-auto"><path d="M10.85 12.65h2.3L12 9l-1.15 3.65zM20 8.69V4h-4.69L12 .69 8.69 4H4v4.69L.69 12 4 15.31V20h4.69L12 23.31 15.31 20H20v-4.69L23.31 12 20 8.69zM14.3 16l-.7-2h-3.2l-.7 2H7.8L11 7h2l3.2 9h-1.9z"/></g>
<g id="brightness-high"><path d="M20 8.69V4h-4.69L12 .69 8.69 4H4v4.69L.69 12 4 15.31V20h4.69L12 23.31 15.31 20H20v-4.69L23.31 12 20 8.69zM12 18c-3.31 0-6-2.69-6-6s2.69-6 6-6 6 2.69 6 6-2.69 6-6 6zm0-10c-2.21 0-4 1.79-4 4s1.79 4 4 4 4-1.79 4-4-1.79-4-4-4z"/></g>
<g id="brightness-low"><path d="M20 15.31L23.31 12 20 8.69V4h-4.69L12 .69 8.69 4H4v4.69L.69 12 4 15.31V20h4.69L12 23.31 15.31 20H20v-4.69zM12 18c-3.31 0-6-2.69-6-6s2.69-6 6-6 6 2.69 6 6-2.69 6-6 6z"/></g>
<g id="brightness-medium"><path d="M20 15.31L23.31 12 20 8.69V4h-4.69L12 .69 8.69 4H4v4.69L.69 12 4 15.31V20h4.69L12 23.31 15.31 20H20v-4.69zM12 18V6c3.31 0 6 2.69 6 6s-2.69 6-6 6z"/></g>
<g id="data-usage"><path d="M13 2.05v3.03c3.39.49 6 3.39 6 6.92 0 .9-.18 1.75-.48 2.54l2.6 1.53c.56-1.24.88-2.62.88-4.07 0-5.18-3.95-9.45-9-9.95zM12 19c-3.87 0-7-3.13-7-7 0-3.53 2.61-6.43 6-6.92V2.05c-5.06.5-9 4.76-9 9.95 0 5.52 4.47 10 9.99 10 3.31 0 6.24-1.61 8.06-4.09l-2.6-1.53C16.17 17.98 14.21 19 12 19z"/></g>
<g id="developer-mode"><path d="M7 5h10v2h2V3c0-1.1-.9-1.99-2-1.99L7 1c-1.1 0-2 .9-2 2v4h2V5zm8.41 11.59L20 12l-4.59-4.59L14 8.83 17.17 12 14 15.17l1.41 1.42zM10 15.17L6.83 12 10 8.83 8.59 7.41 4 12l4.59 4.59L10 15.17zM17 19H7v-2H5v4c0 1.1.9 2 2 2h10c1.1 0 2-.9 2-2v-4h-2v2z"/></g>
<g id="devices"><path d="M4 6h18V4H4c-1.1 0-2 .9-2 2v11H0v3h14v-3H4V6zm19 2h-6c-.55 0-1 .45-1 1v10c0 .55.45 1 1 1h6c.55 0 1-.45 1-1V9c0-.55-.45-1-1-1zm-1 9h-4v-7h4v7z"/></g>
<g id="dvr"><path d="M21 3H3c-1.1 0-2 .9-2 2v12c0 1.1.9 2 2 2h5v2h8v-2h5c1.1 0 1.99-.9 1.99-2L23 5c0-1.1-.9-2-2-2zm0 14H3V5h18v12zm-2-9H8v2h11V8zm0 4H8v2h11v-2zM7 8H5v2h2V8zm0 4H5v2h2v-2z"/></g>
<g id="gps-fixed"><path d="M12 8c-2.21 0-4 1.79-4 4s1.79 4 4 4 4-1.79 4-4-1.79-4-4-4zm8.94 3c-.46-4.17-3.77-7.48-7.94-7.94V1h-2v2.06C6.83 3.52 3.52 6.83 3.06 11H1v2h2.06c.46 4.17 3.77 7.48 7.94 7.94V23h2v-2.06c4.17-.46 7.48-3.77 7.94-7.94H23v-2h-2.06zM12 19c-3.87 0-7-3.13-7-7s3.13-7 7-7 7 3.13 7 7-3.13 7-7 7z"/></g>
<g id="gps-not-fixed"><path d="M20.94 11c-.46-4.17-3.77-7.48-7.94-7.94V1h-2v2.06C6.83 3.52 3.52 6.83 3.06 11H1v2h2.06c.46 4.17 3.77 7.48 7.94 7.94V23h2v-2.06c4.17-.46 7.48-3.77 7.94-7.94H23v-2h-2.06zM12 19c-3.87 0-7-3.13-7-7s3.13-7 7-7 7 3.13 7 7-3.13 7-7 7z"/></g>
<g id="gps-off"><path d="M20.94 11c-.46-4.17-3.77-7.48-7.94-7.94V1h-2v2.06c-1.13.12-2.19.46-3.16.97l1.5 1.5C10.16 5.19 11.06 5 12 5c3.87 0 7 3.13 7 7 0 .94-.19 1.84-.52 2.65l1.5 1.5c.5-.96.84-2.02.97-3.15H23v-2h-2.06zM3 4.27l2.04 2.04C3.97 7.62 3.25 9.23 3.06 11H1v2h2.06c.46 4.17 3.77 7.48 7.94 7.94V23h2v-2.06c1.77-.2 3.38-.91 4.69-1.98L19.73 21 21 19.73 4.27 3 3 4.27zm13.27 13.27C15.09 18.45 13.61 19 12 19c-3.87 0-7-3.13-7-7 0-1.61.55-3.09 1.46-4.27l9.81 9.81z"/></g>
<g id="location-disabled"><path d="M20.94 11c-.46-4.17-3.77-7.48-7.94-7.94V1h-2v2.06c-1.13.12-2.19.46-3.16.97l1.5 1.5C10.16 5.19 11.06 5 12 5c3.87 0 7 3.13 7 7 0 .94-.19 1.84-.52 2.65l1.5 1.5c.5-.96.84-2.02.97-3.15H23v-2h-2.06zM3 4.27l2.04 2.04C3.97 7.62 3.25 9.23 3.06 11H1v2h2.06c.46 4.17 3.77 7.48 7.94 7.94V23h2v-2.06c1.77-.2 3.38-.91 4.69-1.98L19.73 21 21 19.73 4.27 3 3 4.27zm13.27 13.27C15.09 18.45 13.61 19 12 19c-3.87 0-7-3.13-7-7 0-1.61.55-3.09 1.46-4.27l9.81 9.81z"/></g>
<g id="location-searching"><path d="M20.94 11c-.46-4.17-3.77-7.48-7.94-7.94V1h-2v2.06C6.83 3.52 3.52 6.83 3.06 11H1v2h2.06c.46 4.17 3.77 7.48 7.94 7.94V23h2v-2.06c4.17-.46 7.48-3.77 7.94-7.94H23v-2h-2.06zM12 19c-3.87 0-7-3.13-7-7s3.13-7 7-7 7 3.13 7 7-3.13 7-7 7z"/></g>
<g id="multitrack-audio"><path d="M7 18h2V6H7v12zm4 4h2V2h-2v20zm-8-8h2v-4H3v4zm12 4h2V6h-2v12zm4-8v4h2v-4h-2z"/></g>
<g id="network-cell"><path fill-opacity=".3" d="M2 22h20V2z"/><path d="M17 7L2 22h15z"/></g>
<g id="network-wifi"><path fill-opacity=".3" d="M12.01 21.49L23.64 7c-.45-.34-4.93-4-11.64-4C5.28 3 .81 6.66.36 7l11.63 14.49.01.01.01-.01z"/><path d="M3.53 10.95l8.46 10.54.01.01.01-.01 8.46-10.54C20.04 10.62 16.81 8 12 8c-4.81 0-8.04 2.62-8.47 2.95z"/></g>
<g id="nfc"><path d="M20 2H4c-1.1 0-2 .9-2 2v16c0 1.1.9 2 2 2h16c1.1 0 2-.9 2-2V4c0-1.1-.9-2-2-2zm0 18H4V4h16v16zM18 6h-5c-1.1 0-2 .9-2 2v2.28c-.6.35-1 .98-1 1.72 0 1.1.9 2 2 2s2-.9 2-2c0-.74-.4-1.38-1-1.72V8h3v8H8V8h2V6H6v12h12V6z"/></g>
<g id="now-wallpaper"><path d="M4 4h7V2H4c-1.1 0-2 .9-2 2v7h2V4zm6 9l-4 5h12l-3-4-2.03 2.71L10 13zm7-4.5c0-.83-.67-1.5-1.5-1.5S14 7.67 14 8.5s.67 1.5 1.5 1.5S17 9.33 17 8.5zM20 2h-7v2h7v7h2V4c0-1.1-.9-2-2-2zm0 18h-7v2h7c1.1 0 2-.9 2-2v-7h-2v7zM4 13H2v7c0 1.1.9 2 2 2h7v-2H4v-7z"/></g>
<g id="now-widgets"><path d="M13 13v8h8v-8h-8zM3 21h8v-8H3v8zM3 3v8h8V3H3zm13.66-1.31L11 7.34 16.66 13l5.66-5.66-5.66-5.65z"/></g>
<g id="screen-lock-landscape"><path d="M21 5H3c-1.1 0-2 .9-2 2v10c0 1.1.9 2 2 2h18c1.1 0 2-.9 2-2V7c0-1.1-.9-2-2-2zm-2 12H5V7h14v10zm-9-1h4c.55 0 1-.45 1-1v-3c0-.55-.45-1-1-1v-1c0-1.11-.9-2-2-2-1.11 0-2 .9-2 2v1c-.55 0-1 .45-1 1v3c0 .55.45 1 1 1zm.8-6c0-.66.54-1.2 1.2-1.2.66 0 1.2.54 1.2 1.2v1h-2.4v-1z"/></g>
<g id="screen-lock-portrait"><path d="M10 16h4c.55 0 1-.45 1-1v-3c0-.55-.45-1-1-1v-1c0-1.11-.9-2-2-2-1.11 0-2 .9-2 2v1c-.55 0-1 .45-1 1v3c0 .55.45 1 1 1zm.8-6c0-.66.54-1.2 1.2-1.2.66 0 1.2.54 1.2 1.2v1h-2.4v-1zM17 1H7c-1.1 0-2 .9-2 2v18c0 1.1.9 2 2 2h10c1.1 0 2-.9 2-2V3c0-1.1-.9-2-2-2zm0 18H7V5h10v14z"/></g>
<g id="screen-lock-rotation"><path d="M23.25 12.77l-2.57-2.57-1.41 1.41 2.22 2.22-5.66 5.66L4.51 8.17l5.66-5.66 2.1 2.1 1.41-1.41L11.23.75c-.59-.59-1.54-.59-2.12 0L2.75 7.11c-.59.59-.59 1.54 0 2.12l12.02 12.02c.59.59 1.54.59 2.12 0l6.36-6.36c.59-.59.59-1.54 0-2.12zM8.47 20.48C5.2 18.94 2.86 15.76 2.5 12H1c.51 6.16 5.66 11 11.95 11l.66-.03-3.81-3.82-1.33 1.33zM16 9h5c.55 0 1-.45 1-1V4c0-.55-.45-1-1-1v-.5C21 1.12 19.88 0 18.5 0S16 1.12 16 2.5V3c-.55 0-1 .45-1 1v4c0 .55.45 1 1 1zm.8-6.5c0-.94.76-1.7 1.7-1.7s1.7.76 1.7 1.7V3h-3.4v-.5z"/></g>
<g id="screen-rotation"><path d="M16.48 2.52c3.27 1.55 5.61 4.72 5.97 8.48h1.5C23.44 4.84 18.29 0 12 0l-.66.03 3.81 3.81 1.33-1.32zm-6.25-.77c-.59-.59-1.54-.59-2.12 0L1.75 8.11c-.59.59-.59 1.54 0 2.12l12.02 12.02c.59.59 1.54.59 2.12 0l6.36-6.36c.59-.59.59-1.54 0-2.12L10.23 1.75zm4.6 19.44L2.81 9.17l6.36-6.36 12.02 12.02-6.36 6.36zm-7.31.29C4.25 19.94 1.91 16.76 1.55 13H.05C.56 19.16 5.71 24 12 24l.66-.03-3.81-3.81-1.33 1.32z"/></g>
<g id="sd-storage"><path d="M18 2h-8L4.02 8 4 20c0 1.1.9 2 2 2h12c1.1 0 2-.9 2-2V4c0-1.1-.9-2-2-2zm-6 6h-2V4h2v4zm3 0h-2V4h2v4zm3 0h-2V4h2v4z"/></g>
<g id="settings-system-daydream"><path d="M9 16h6.5c1.38 0 2.5-1.12 2.5-2.5S16.88 11 15.5 11h-.05c-.24-1.69-1.69-3-3.45-3-1.4 0-2.6.83-3.16 2.02h-.16C7.17 10.18 6 11.45 6 13c0 1.66 1.34 3 3 3zM21 3H3c-1.1 0-2 .9-2 2v14c0 1.1.9 2 2 2h18c1.1 0 2-.9 2-2V5c0-1.1-.9-2-2-2zm0 16.01H3V4.99h18v14.02z"/></g>
<g id="signal-cellular-0-bar"><path fill-opacity=".3" d="M2 22h20V2z"/></g>
<g id="signal-cellular-1-bar"><path fill-opacity=".3" d="M2 22h20V2z"/><path d="M12 12L2 22h10z"/></g>
<g id="signal-cellular-2-bar"><path fill-opacity=".3" d="M2 22h20V2z"/><path d="M14 10L2 22h12z"/></g>
<g id="signal-cellular-3-bar"><path fill-opacity=".3" d="M2 22h20V2z"/><path d="M17 7L2 22h15z"/></g>
<g id="signal-cellular-4-bar"><path d="M2 22h20V2z"/></g>
<g id="signal-cellular-connected-no-internet-0-bar"><path fill-opacity=".3" d="M22 8V2L2 22h16V8z"/><path d="M20 22h2v-2h-2v2zm0-12v8h2v-8h-2z"/></g>
<g id="signal-cellular-connected-no-internet-1-bar"><path fill-opacity=".3" d="M22 8V2L2 22h16V8z"/><path d="M20 10v8h2v-8h-2zm-8 12V12L2 22h10zm8 0h2v-2h-2v2z"/></g>
<g id="signal-cellular-connected-no-internet-2-bar"><path fill-opacity=".3" d="M22 8V2L2 22h16V8z"/><path d="M14 22V10L2 22h12zm6-12v8h2v-8h-2zm0 12h2v-2h-2v2z"/></g>
<g id="signal-cellular-connected-no-internet-3-bar"><path fill-opacity=".3" d="M22 8V2L2 22h16V8z"/><path d="M17 22V7L2 22h15zm3-12v8h2v-8h-2zm0 12h2v-2h-2v2z"/></g>
<g id="signal-cellular-connected-no-internet-4-bar"><path d="M20 18h2v-8h-2v8zm0 4h2v-2h-2v2zM2 22h16V8h4V2L2 22z"/></g>
<g id="signal-cellular-no-sim"><path d="M18.99 5c0-1.1-.89-2-1.99-2h-7L7.66 5.34 19 16.68 18.99 5zM3.65 3.88L2.38 5.15 5 7.77V19c0 1.1.9 2 2 2h10.01c.35 0 .67-.1.96-.26l1.88 1.88 1.27-1.27L3.65 3.88z"/></g>
<g id="signal-cellular-null"><path d="M20 6.83V20H6.83L20 6.83M22 2L2 22h20V2z"/></g>
<g id="signal-cellular-off"><path d="M21 1l-8.59 8.59L21 18.18V1zM4.77 4.5L3.5 5.77l6.36 6.36L1 21h17.73l2 2L22 21.73 4.77 4.5z"/></g>
<g id="signal-wifi-0-bar"><path fill-opacity=".3" d="M12.01 21.49L23.64 7c-.45-.34-4.93-4-11.64-4C5.28 3 .81 6.66.36 7l11.63 14.49.01.01.01-.01z"/></g>
<g id="signal-wifi-1-bar"><path fill-opacity=".3" d="M12.01 21.49L23.64 7c-.45-.34-4.93-4-11.64-4C5.28 3 .81 6.66.36 7l11.63 14.49.01.01.01-.01z"/><path d="M6.67 14.86L12 21.49v.01l.01-.01 5.33-6.63C17.06 14.65 15.03 13 12 13s-5.06 1.65-5.33 1.86z"/></g>
<g id="signal-wifi-2-bar"><path fill-opacity=".3" d="M12.01 21.49L23.64 7c-.45-.34-4.93-4-11.64-4C5.28 3 .81 6.66.36 7l11.63 14.49.01.01.01-.01z"/><path d="M4.79 12.52l7.2 8.98H12l.01-.01 7.2-8.98C18.85 12.24 16.1 10 12 10s-6.85 2.24-7.21 2.52z"/></g>
<g id="signal-wifi-3-bar"><path fill-opacity=".3" d="M12.01 21.49L23.64 7c-.45-.34-4.93-4-11.64-4C5.28 3 .81 6.66.36 7l11.63 14.49.01.01.01-.01z"/><path d="M3.53 10.95l8.46 10.54.01.01.01-.01 8.46-10.54C20.04 10.62 16.81 8 12 8c-4.81 0-8.04 2.62-8.47 2.95z"/></g>
<g id="signal-wifi-4-bar"><path d="M12.01 21.49L23.64 7c-.45-.34-4.93-4-11.64-4C5.28 3 .81 6.66.36 7l11.63 14.49.01.01.01-.01z"/></g>
<g id="signal-wifi-off"><path d="M23.64 7c-.45-.34-4.93-4-11.64-4-1.5 0-2.89.19-4.15.48L18.18 13.8 23.64 7zm-6.6 8.22L3.27 1.44 2 2.72l2.05 2.06C1.91 5.76.59 6.82.36 7l11.63 14.49.01.01.01-.01 3.9-4.86 3.32 3.32 1.27-1.27-3.46-3.46z"/></g>
<g id="storage"><path d="M2 20h20v-4H2v4zm2-3h2v2H4v-2zM2 4v4h20V4H2zm4 3H4V5h2v2zm-4 7h20v-4H2v4zm2-3h2v2H4v-2z"/></g>
<g id="usb"><path d="M15 7v4h1v2h-3V5h2l-3-4-3 4h2v8H8v-2.07c.7-.37 1.2-1.08 1.2-1.93 0-1.21-.99-2.2-2.2-2.2-1.21 0-2.2.99-2.2 2.2 0 .85.5 1.56 1.2 1.93V13c0 1.11.89 2 2 2h3v3.05c-.71.37-1.2 1.1-1.2 1.95 0 1.22.99 2.2 2.2 2.2 1.21 0 2.2-.98 2.2-2.2 0-.85-.49-1.58-1.2-1.95V15h3c1.11 0 2-.89 2-2v-2h1V7h-4z"/></g>
<g id="wifi-lock"><path d="M20.5 9.5c.28 0 .55.04.81.08L24 6c-3.34-2.51-7.5-4-12-4S3.34 3.49 0 6l12 16 3.5-4.67V14.5c0-2.76 2.24-5 5-5zM23 16v-1.5c0-1.38-1.12-2.5-2.5-2.5S18 13.12 18 14.5V16c-.55 0-1 .45-1 1v4c0 .55.45 1 1 1h5c.55 0 1-.45 1-1v-4c0-.55-.45-1-1-1zm-1 0h-3v-1.5c0-.83.67-1.5 1.5-1.5s1.5.67 1.5 1.5V16z"/></g>
<g id="wifi-tethering"><path d="M12 11c-1.1 0-2 .9-2 2s.9 2 2 2 2-.9 2-2-.9-2-2-2zm6 2c0-3.31-2.69-6-6-6s-6 2.69-6 6c0 2.22 1.21 4.15 3 5.19l1-1.74c-1.19-.7-2-1.97-2-3.45 0-2.21 1.79-4 4-4s4 1.79 4 4c0 1.48-.81 2.75-2 3.45l1 1.74c1.79-1.04 3-2.97 3-5.19zM12 3C6.48 3 2 7.48 2 13c0 3.7 2.01 6.92 4.99 8.65l1-1.73C5.61 18.53 4 15.96 4 13c0-4.42 3.58-8 8-8s8 3.58 8 8c0 2.96-1.61 5.53-4 6.92l1 1.73c2.99-1.73 5-4.95 5-8.65 0-5.52-4.48-10-10-10z"/></g>
</defs></svg>

